<?xml version="1.0" standalone="no"?><!DOCTYPE svg PUBLIC "-//W3C//DTD SVG 1.1//EN" "http://www.w3.org/Graphics/SVG/1.1/DTD/svg11.dtd"><svg t="1591837405037" class="icon" viewBox="0 0 1024 1024" version="1.1" xmlns="http://www.w3.org/2000/svg" p-id="3671" xmlns:xlink="http://www.w3.org/1999/xlink" width="48" height="48"><defs><style type="text/css"></style></defs><path d="M512.02 63.95c22.39 0 44.78 22.39 44.78 44.78v134.34c0 22.39-22.39 44.78-44.78 44.78s-44.78-22.39-44.78-44.78V108.73c0-22.39 22.39-44.78 44.78-44.78z m0 0" fill="#148928" opacity=".14" p-id="3672"></path><path d="M747.12 131.12c22.39 11.19 27.98 39.18 16.79 61.57l-67.17 117.55c-11.19 22.39-39.18 27.99-61.57 16.79-22.39-16.79-33.58-39.18-16.79-61.57l67.17-117.55c11.19-22.39 39.18-27.99 61.57-16.79z m0 0M892.66 293.45c11.19 22.39 5.59 50.38-16.8 61.57l-117.55 67.17c-22.39 11.2-50.38 5.6-61.57-16.79-11.19-22.39-5.6-50.38 16.8-61.57l117.55-67.17c22.38-11.2 50.37-5.6 61.57 16.79z m0 0" fill="#148928" p-id="3673"></path><path d="M959.82 500.56c0 22.39-22.39 44.78-44.78 44.78H780.7c-22.39 0-44.78-22.39-44.78-44.78s22.39-44.78 44.78-44.78h134.34c22.39 5.59 44.78 22.39 44.78 44.78z m0 0" fill="#148928" opacity=".86" p-id="3674"></path><path d="M892.66 730.06c-11.2 22.39-39.18 27.99-61.57 16.79l-117.55-67.17c-22.39-11.19-27.99-39.18-16.8-61.57 11.2-22.39 39.18-27.99 61.57-16.79l117.55 67.17c22.39 16.79 27.99 39.18 16.8 61.57z m0 0" fill="#148928" opacity=".78" p-id="3675"></path><path d="M747.12 909.18c-22.39 11.19-50.38 5.59-61.57-16.79l-67.17-117.55c-11.19-22.39-5.59-50.38 16.79-61.57 22.39-11.2 50.38-5.6 61.57 16.79l67.17 117.55c11.19 22.39 0 50.37-16.79 61.57z m0 0" fill="#148928" opacity=".7" p-id="3676"></path><path d="M512.02 959.56c-22.39 0-44.78-22.39-44.78-44.78V780.44c0-27.98 22.39-44.78 44.78-44.78s44.78 22.39 44.78 44.78v134.34c0 22.39-22.39 44.78-44.78 44.78z m0 0" fill="#148928" opacity=".62" p-id="3677"></path><path d="M276.92 909.18c-22.39-11.2-27.99-39.18-16.79-61.57l67.17-117.55c11.19-22.39 39.18-27.99 61.57-16.79 22.39 11.19 27.99 39.18 16.79 61.57l-67.17 117.55c-11.19 22.39-39.18 27.99-61.57 16.79z m0 0" fill="#148928" opacity=".54" p-id="3678"></path><path d="M114.59 730.06c-11.19-22.39-5.59-50.38 16.8-61.57l117.55-67.17c22.39-11.19 50.38-5.6 61.57 16.79 11.19 22.39 5.59 50.38-16.79 61.57l-117.55 67.17c-22.39 11.2-50.38 5.6-61.58-16.79z m0 0" fill="#148928" opacity=".46" p-id="3679"></path><path d="M64.21 500.56c0-22.39 22.39-44.78 44.78-44.78h134.34c27.99 5.6 44.78 22.39 44.78 44.78s-22.39 44.78-44.78 44.78H108.99c-22.39 0-44.78-16.79-44.78-44.78z m0 0" fill="#148928" opacity=".38" p-id="3680"></path><path d="M114.59 293.45c11.2-22.39 39.19-27.99 61.57-16.8l117.55 67.17c22.39 11.19 27.99 39.18 16.79 61.57-11.2 16.79-39.18 27.99-61.57 16.79l-117.55-72.77c-22.39-11.18-27.98-33.57-16.79-55.96z m0 0" fill="#148928" opacity=".3" p-id="3681"></path><path d="M276.92 131.12c22.39-11.2 50.38-5.6 61.57 16.79l67.17 117.55c16.79 22.39 5.6 44.78-16.79 61.57-16.79 11.19-44.78 0-55.97-16.79l-67.17-117.55c-16.8-22.39-5.6-50.38 11.19-61.57z m0 0" fill="#148928" opacity=".22" p-id="3682"></path></svg>